# xmcd CD database file
#
# Track frame offsets:
#	150
#	37293
#	58343
#	75378
#	115342
#	142038
#	185879
#
# Disc length: 2870 seconds
#
# Revision: 0
# Processed by: cddbd v1.5.1PL0 Copyright (c) Steve Scherf et al.
# Submitted via: CDex 1.51
#
DISCID=6b0b3407
DTITLE=Guns N' Roses - Maracana XP II [CD2]
DYEAR=1900
DGENRE=Rock
TTITLE0=Guitar Solo
TTITLE1=Bad Apples
TTITLE2=It's So Easy
TTITLE3=Rocket Queen
TTITLE4=Sweet Child O' Mine
TTITLE5=Estranged
TTITLE6=Paradise City
EXTD=
EXTT0=
EXTT1=
EXTT2=
EXTT3=
EXTT4=
EXTT5=
EXTT6=
PLAYORDER=
